<svg version="1.1" xmlns="http://www.w3.org/2000/svg" xmlns:xlink="http://www.w3.org/1999/xlink" viewBox="0 0 226 226"><g fill="none" fill-rule="nonzero" stroke="none" stroke-width="1" stroke-linecap="butt" stroke-linejoin="miter" stroke-miterlimit="10" stroke-dasharray="" stroke-dashoffset="0" font-family="none" font-weight="none" font-size="none" text-anchor="none" style="mix-blend-mode: normal"><path d="M0,226v-226h226v226z" fill="none"></path><g><path d="M113,33.9c-43.68572,0 -79.1,35.41428 -79.1,79.1c0,43.68572 35.41428,79.1 79.1,79.1c43.68572,0 79.1,-35.41428 79.1,-79.1c0,-43.68572 -35.41428,-79.1 -79.1,-79.1z" fill="#1abc9c"></path><path d="M113,193.23c-44.2395,0 -80.23,-35.9905 -80.23,-80.23c0,-44.2395 35.9905,-80.23 80.23,-80.23c44.2395,0 80.23,35.9905 80.23,80.23c0,44.2395 -35.9905,80.23 -80.23,80.23zM113,35.03c-42.99198,0 -77.97,34.97802 -77.97,77.97c0,42.99198 34.97802,77.97 77.97,77.97c42.99198,0 77.97,-34.97802 77.97,-77.97c0,-42.99198 -34.97802,-77.97 -77.97,-77.97z" fill="#1abc9c"></path><path d="M113,42.94c-38.69307,0 -70.06,31.36693 -70.06,70.06c0,38.69307 31.36693,70.06 70.06,70.06c38.69307,0 70.06,-31.36693 70.06,-70.06c0,-38.69307 -31.36693,-70.06 -70.06,-70.06z" fill="#ecf0f1"></path><path d="M113,194.36c-44.86326,0 -81.36,-36.49674 -81.36,-81.36c0,-44.86326 36.49674,-81.36 81.36,-81.36c44.86326,0 81.36,36.49674 81.36,81.36c0,44.86326 -36.49674,81.36 -81.36,81.36zM113,36.16c-42.37048,0 -76.84,34.46952 -76.84,76.84c0,42.37048 34.46952,76.84 76.84,76.84c42.37048,0 76.84,-34.46952 76.84,-76.84c0,-42.37048 -34.46952,-76.84 -76.84,-76.84z" fill="#1f212b"></path><path d="M148.03,54.75302c-0.19662,0 -0.3955,-0.04972 -0.5763,-0.1582c-1.44188,-0.85202 -2.93574,-1.6611 -4.44542,-2.4069c-0.55822,-0.27798 -0.78874,-0.95372 -0.51302,-1.5142c0.27798,-0.56274 0.9605,-0.78422 1.5142,-0.51302c1.55714,0.77066 3.10524,1.60686 4.59458,2.49052c0.53562,0.31866 0.71416,1.01022 0.39776,1.5481c-0.21018,0.35482 -0.58534,0.5537 -0.9718,0.5537zM154.81,59.325c-0.23956,0 -0.48138,-0.07684 -0.68704,-0.23278c-0.72772,-0.55822 -1.469,-1.09836 -2.22158,-1.6272c-0.51076,-0.35934 -0.63506,-1.0622 -0.27572,-1.57296c0.35708,-0.51528 1.0622,-0.6328 1.57296,-0.27798c0.7797,0.54466 1.54358,1.1074 2.29842,1.6837c0.4972,0.37742 0.58986,1.08706 0.21244,1.58426c-0.22374,0.28928 -0.56048,0.44296 -0.89948,0.44296z" fill="#1f212b"></path><path d="M113,183.06c-38.63244,0 -70.06,-31.42982 -70.06,-70.06c0,-38.63018 31.42756,-70.06 70.06,-70.06c8.28968,0 16.40534,1.4351 24.11872,4.26236c0.5876,0.2147 0.88818,0.86332 0.67348,1.45092c-0.2147,0.5876 -0.86558,0.88818 -1.45092,0.67122c-7.46478,-2.73686 -15.31602,-4.1245 -23.34128,-4.1245c-37.38492,0 -67.8,30.41508 -67.8,67.8c0,37.38492 30.41508,67.8 67.8,67.8c37.38492,0 67.8,-30.41508 67.8,-67.8c0,-19.07214 -8.1021,-37.3691 -22.22936,-50.20138c-0.4633,-0.42036 -0.4972,-1.13452 -0.07684,-1.59782c0.42262,-0.46104 1.13678,-0.49494 1.59556,-0.07684c14.5996,13.26168 22.97064,32.16884 22.97064,51.87604c0,38.63018 -31.42756,70.06 -70.06,70.06z" fill="#1f212b"></path><path d="M99.30214,88.00214l-22.6,22.6c-1.32436,1.32436 -1.32436,3.4691 0,4.79346l22.6,22.6c1.32436,1.32436 3.4691,1.32436 4.79346,0c1.32436,-1.32436 1.32436,-3.4691 0,-4.79346l-16.81214,-16.81214h59.61654c1.87128,0 3.39,-1.51646 3.39,-3.39c0,-1.87354 -1.51872,-3.39 -3.39,-3.39h-59.61654l16.81214,-16.81214c0.66444,-0.66218 0.9944,-1.53002 0.9944,-2.39786c0,-0.86784 -0.32996,-1.73568 -0.99214,-2.39786c-1.32436,-1.3221 -3.47136,-1.3221 -4.79572,0z" fill="#1abc9c"></path><path d="M101.7,140.12c-1.20684,0 -2.34136,-0.47008 -3.19564,-1.32436l-22.6,-22.6c-0.85428,-0.85428 -1.32436,-1.9888 -1.32436,-3.19564c0,-1.20684 0.47008,-2.34136 1.32436,-3.19564l22.6,-22.6c1.70856,-1.70856 4.68272,-1.70856 6.39128,0c0.85428,0.85428 1.32436,1.9888 1.32436,3.19564c0,1.20684 -0.47008,2.34136 -1.32436,3.19564l-14.88436,14.88436h56.88872c2.49278,0 4.52,2.02722 4.52,4.52c0,2.49278 -2.02722,4.52 -4.52,4.52h-56.88872l14.88436,14.88436c0.85428,0.85428 1.32436,1.9888 1.32436,3.19564c0,1.20684 -0.47008,2.34136 -1.32436,3.19564c-0.85428,0.85428 -1.9888,1.32436 -3.19564,1.32436zM101.7,88.14226c-0.57856,0 -1.15712,0.21922 -1.59782,0.65992l-22.6,22.6c-0.42714,0.42714 -0.66218,0.9944 -0.66218,1.59782c0,0.60342 0.23504,1.17068 0.66218,1.59782l22.6,22.6c0.8814,0.88366 2.31424,0.88366 3.19564,0c0.8814,-0.8814 0.8814,-2.31424 0,-3.19564l-18.74218,-18.74218h62.34436c1.24526,0 2.26,-1.01248 2.26,-2.26c0,-1.24752 -1.01474,-2.26 -2.26,-2.26h-62.34436l18.74218,-18.74218c0.42714,-0.42714 0.66218,-0.9944 0.66218,-1.59782c0,-0.60342 -0.23504,-1.17068 -0.66218,-1.59782c-0.4407,-0.4407 -1.01926,-0.65992 -1.59782,-0.65992z" fill="#1f212b"></path></g></g></svg>